<mxfile host="app.diagrams.net" agent="Mozilla/5.0 (Windows NT 10.0; Win64; x64) AppleWebKit/537.36 (KHTML, like Gecko) Chrome/131.0.0.0 Safari/537.36" version="25.0.3">
  <diagram name="Page-1" id="ZLguBXuZASF_yaRO0AXO">
    <mxGraphModel dx="1682" dy="894" grid="1" gridSize="10" guides="1" tooltips="1" connect="1" arrows="1" fold="1" page="1" pageScale="1" pageWidth="850" pageHeight="1100" math="0" shadow="0">
      <root>
        <mxCell id="0" />
        <mxCell id="1" parent="0" />
        <mxCell id="X65Rwn8c0l4z5KiAHU4K-1" value="agent de cesie" style="shape=umlActor;verticalLabelPosition=bottom;verticalAlign=top;html=1;outlineConnect=0;" vertex="1" parent="1">
          <mxGeometry x="80" y="380" width="40" height="80" as="geometry" />
        </mxCell>
        <mxCell id="X65Rwn8c0l4z5KiAHU4K-3" value="" style="swimlane;startSize=0;" vertex="1" parent="1">
          <mxGeometry x="270" y="150" width="430" height="490" as="geometry" />
        </mxCell>
        <mxCell id="X65Rwn8c0l4z5KiAHU4K-4" value="ajouter une garentie&amp;nbsp;" style="ellipse;whiteSpace=wrap;html=1;" vertex="1" parent="X65Rwn8c0l4z5KiAHU4K-3">
          <mxGeometry x="140" y="20" width="160" height="80" as="geometry" />
        </mxCell>
        <mxCell id="X65Rwn8c0l4z5KiAHU4K-6" value="verifier garentie" style="ellipse;whiteSpace=wrap;html=1;" vertex="1" parent="X65Rwn8c0l4z5KiAHU4K-3">
          <mxGeometry x="145" y="180" width="150" height="80" as="geometry" />
        </mxCell>
        <mxCell id="X65Rwn8c0l4z5KiAHU4K-9" value="" style="endArrow=none;dashed=1;html=1;dashPattern=1 3;strokeWidth=2;rounded=0;entryX=0.456;entryY=0.968;entryDx=0;entryDy=0;entryPerimeter=0;exitX=0.5;exitY=0;exitDx=0;exitDy=0;" edge="1" parent="X65Rwn8c0l4z5KiAHU4K-3" source="X65Rwn8c0l4z5KiAHU4K-6" target="X65Rwn8c0l4z5KiAHU4K-4">
          <mxGeometry width="50" height="50" relative="1" as="geometry">
            <mxPoint x="130" y="250" as="sourcePoint" />
            <mxPoint x="180" y="200" as="targetPoint" />
            <Array as="points" />
          </mxGeometry>
        </mxCell>
        <mxCell id="X65Rwn8c0l4z5KiAHU4K-10" value="&amp;lt;&amp;lt;include&amp;gt;&amp;gt;" style="edgeLabel;html=1;align=center;verticalAlign=middle;resizable=0;points=[];" vertex="1" connectable="0" parent="X65Rwn8c0l4z5KiAHU4K-9">
          <mxGeometry x="-0.0106" y="2" relative="1" as="geometry">
            <mxPoint as="offset" />
          </mxGeometry>
        </mxCell>
        <mxCell id="X65Rwn8c0l4z5KiAHU4K-5" value="" style="endArrow=none;html=1;rounded=0;entryX=0;entryY=0.5;entryDx=0;entryDy=0;" edge="1" parent="1" target="X65Rwn8c0l4z5KiAHU4K-4">
          <mxGeometry width="50" height="50" relative="1" as="geometry">
            <mxPoint x="110" y="430" as="sourcePoint" />
            <mxPoint x="160" y="380" as="targetPoint" />
          </mxGeometry>
        </mxCell>
      </root>
    </mxGraphModel>
  </diagram>
</mxfile>
